<?xml version="1.0" encoding="UTF-8" standalone="no"?>
<svg
   xmlns:dc="http://purl.org/dc/elements/1.1/"
   xmlns:cc="http://creativecommons.org/ns#"
   xmlns:rdf="http://www.w3.org/1999/02/22-rdf-syntax-ns#"
   xmlns:svg="http://www.w3.org/2000/svg"
   xmlns="http://www.w3.org/2000/svg"
   xmlns:sodipodi="http://sodipodi.sourceforge.net/DTD/sodipodi-0.dtd"
   xmlns:inkscape="http://www.inkscape.org/namespaces/inkscape"
   version="1.1"
   id="svg51"
   xml:space="preserve"
   width="302.36221"
   height="302.36221"
   viewBox="0 0 302.36221 302.36221"
   sodipodi:docname="CALANGO_LOGO2.svg"
   inkscape:version="1.0.2 (e86c8708, 2021-01-15)"><metadata
     id="metadata57"><rdf:RDF><cc:Work
         rdf:about=""><dc:format>image/svg+xml</dc:format><dc:type
           rdf:resource="http://purl.org/dc/dcmitype/StillImage" /><dc:title></dc:title></cc:Work></rdf:RDF></metadata><defs
     id="defs55"><filter
       style="color-interpolation-filters:sRGB;"
       inkscape:label="Brilliance"
       id="filter350"><feComposite
         in2="SourceGraphic"
         operator="arithmetic"
         k1="0"
         k2="1"
         result="composite1"
         id="feComposite336" /><feColorMatrix
         in="composite1"
         values="1"
         type="saturate"
         result="colormatrix1"
         id="feColorMatrix338" /><feFlood
         flood-opacity="1"
         flood-color="rgb(158,67,0)"
         result="flood1"
         id="feFlood340" /><feBlend
         in="flood1"
         in2="colormatrix1"
         mode="multiply"
         result="blend1"
         id="feBlend342" /><feBlend
         in2="blend1"
         mode="screen"
         result="blend2"
         id="feBlend344" /><feColorMatrix
         in="blend2"
         values="1"
         type="saturate"
         result="colormatrix2"
         id="feColorMatrix346" /><feComposite
         in="colormatrix2"
         in2="SourceGraphic"
         operator="in"
         k2="1"
         result="fbSourceGraphic"
         id="feComposite348" /><feColorMatrix
         result="fbSourceGraphicAlpha"
         in="fbSourceGraphic"
         values="0 0 0 -1 0 0 0 0 -1 0 0 0 0 -1 0 0 0 0 1 0"
         id="feColorMatrix352" /><feComposite
         in2="fbSourceGraphic"
         id="feComposite354"
         operator="arithmetic"
         k1="0"
         k2="1"
         result="composite1"
         in="fbSourceGraphic" /><feColorMatrix
         id="feColorMatrix356"
         in="composite1"
         values="1"
         type="saturate"
         result="colormatrix1" /><feFlood
         id="feFlood358"
         flood-opacity="1"
         flood-color="rgb(158,67,0)"
         result="flood1" /><feBlend
         in2="colormatrix1"
         id="feBlend360"
         in="flood1"
         mode="multiply"
         result="blend1" /><feBlend
         in2="blend1"
         id="feBlend362"
         mode="screen"
         result="blend2" /><feColorMatrix
         id="feColorMatrix364"
         in="blend2"
         values="1"
         type="saturate"
         result="colormatrix2" /><feComposite
         in2="fbSourceGraphic"
         id="feComposite366"
         in="colormatrix2"
         operator="in"
         k2="1"
         result="fbSourceGraphic" /><feColorMatrix
         result="fbSourceGraphicAlpha"
         in="fbSourceGraphic"
         values="0 0 0 -1 0 0 0 0 -1 0 0 0 0 -1 0 0 0 0 1 0"
         id="feColorMatrix368" /><feComposite
         in2="fbSourceGraphic"
         id="feComposite370"
         operator="arithmetic"
         k1="0"
         k2="1"
         result="composite1"
         in="fbSourceGraphic" /><feColorMatrix
         id="feColorMatrix372"
         in="composite1"
         values="1"
         type="saturate"
         result="colormatrix1" /><feFlood
         id="feFlood374"
         flood-opacity="1"
         flood-color="rgb(158,67,0)"
         result="flood1" /><feBlend
         in2="colormatrix1"
         id="feBlend376"
         in="flood1"
         mode="multiply"
         result="blend1" /><feBlend
         in2="blend1"
         id="feBlend378"
         mode="screen"
         result="blend2" /><feColorMatrix
         id="feColorMatrix380"
         in="blend2"
         values="1"
         type="saturate"
         result="colormatrix2" /><feComposite
         in2="fbSourceGraphic"
         id="feComposite382"
         in="colormatrix2"
         operator="in"
         k2="1"
         result="fbSourceGraphic" /><feColorMatrix
         result="fbSourceGraphicAlpha"
         in="fbSourceGraphic"
         values="0 0 0 -1 0 0 0 0 -1 0 0 0 0 -1 0 0 0 0 1 0"
         id="feColorMatrix384" /><feComposite
         in2="fbSourceGraphic"
         id="feComposite386"
         operator="arithmetic"
         k1="0"
         k2="1"
         result="composite1"
         in="fbSourceGraphic" /><feColorMatrix
         id="feColorMatrix388"
         in="composite1"
         values="1"
         type="saturate"
         result="colormatrix1" /><feFlood
         id="feFlood390"
         flood-opacity="1"
         flood-color="rgb(158,67,0)"
         result="flood1" /><feBlend
         in2="colormatrix1"
         id="feBlend392"
         in="flood1"
         mode="multiply"
         result="blend1" /><feBlend
         in2="blend1"
         id="feBlend394"
         mode="screen"
         result="blend2" /><feColorMatrix
         id="feColorMatrix396"
         in="blend2"
         values="1"
         type="saturate"
         result="colormatrix2" /><feComposite
         in2="fbSourceGraphic"
         id="feComposite398"
         in="colormatrix2"
         operator="in"
         k2="1"
         result="fbSourceGraphic" /><feColorMatrix
         result="fbSourceGraphicAlpha"
         in="fbSourceGraphic"
         values="0 0 0 -1 0 0 0 0 -1 0 0 0 0 -1 0 0 0 0 1 0"
         id="feColorMatrix400" /><feComposite
         in2="fbSourceGraphic"
         id="feComposite402"
         operator="arithmetic"
         k1="0"
         k2="1"
         result="composite1"
         in="fbSourceGraphic" /><feColorMatrix
         id="feColorMatrix404"
         in="composite1"
         values="1"
         type="saturate"
         result="colormatrix1" /><feFlood
         id="feFlood406"
         flood-opacity="1"
         flood-color="rgb(158,67,0)"
         result="flood1" /><feBlend
         in2="colormatrix1"
         id="feBlend408"
         in="flood1"
         mode="multiply"
         result="blend1" /><feBlend
         in2="blend1"
         id="feBlend410"
         mode="screen"
         result="blend2" /><feColorMatrix
         id="feColorMatrix412"
         in="blend2"
         values="1"
         type="saturate"
         result="colormatrix2" /><feComposite
         in2="fbSourceGraphic"
         id="feComposite414"
         in="colormatrix2"
         operator="in"
         k2="1"
         result="fbSourceGraphic" /><feColorMatrix
         result="fbSourceGraphicAlpha"
         in="fbSourceGraphic"
         values="0 0 0 -1 0 0 0 0 -1 0 0 0 0 -1 0 0 0 0 1 0"
         id="feColorMatrix416" /><feComposite
         in2="fbSourceGraphic"
         id="feComposite418"
         operator="arithmetic"
         k1="0"
         k2="1"
         result="composite1"
         in="fbSourceGraphic" /><feColorMatrix
         id="feColorMatrix420"
         in="composite1"
         values="1"
         type="saturate"
         result="colormatrix1" /><feFlood
         id="feFlood422"
         flood-opacity="1"
         flood-color="rgb(158,67,0)"
         result="flood1" /><feBlend
         in2="colormatrix1"
         id="feBlend424"
         in="flood1"
         mode="multiply"
         result="blend1" /><feBlend
         in2="blend1"
         id="feBlend426"
         mode="screen"
         result="blend2" /><feColorMatrix
         id="feColorMatrix428"
         in="blend2"
         values="1"
         type="saturate"
         result="colormatrix2" /><feComposite
         in2="fbSourceGraphic"
         id="feComposite430"
         in="colormatrix2"
         operator="in"
         k2="1"
         result="fbSourceGraphic" /><feColorMatrix
         result="fbSourceGraphicAlpha"
         in="fbSourceGraphic"
         values="0 0 0 -1 0 0 0 0 -1 0 0 0 0 -1 0 0 0 0 1 0"
         id="feColorMatrix432" /><feComposite
         in2="fbSourceGraphic"
         id="feComposite434"
         operator="arithmetic"
         k1="0"
         k2="1"
         result="composite1"
         in="fbSourceGraphic" /><feColorMatrix
         id="feColorMatrix436"
         in="composite1"
         values="1"
         type="saturate"
         result="colormatrix1" /><feFlood
         id="feFlood438"
         flood-opacity="1"
         flood-color="rgb(158,67,0)"
         result="flood1" /><feBlend
         in2="colormatrix1"
         id="feBlend440"
         in="flood1"
         mode="multiply"
         result="blend1" /><feBlend
         in2="blend1"
         id="feBlend442"
         mode="screen"
         result="blend2" /><feColorMatrix
         id="feColorMatrix444"
         in="blend2"
         values="1"
         type="saturate"
         result="colormatrix2" /><feComposite
         in2="fbSourceGraphic"
         id="feComposite446"
         in="colormatrix2"
         operator="in"
         k2="1"
         result="fbSourceGraphic" /><feColorMatrix
         result="fbSourceGraphicAlpha"
         in="fbSourceGraphic"
         values="0 0 0 -1 0 0 0 0 -1 0 0 0 0 -1 0 0 0 0 1 0"
         id="feColorMatrix538" /><feColorMatrix
         id="feColorMatrix540"
         values="1.72973 -0.5 -0.5 0 -4.59 -0.5 1.72973 -0.5 0 -4.59 -0.5 -0.5 1.72973 0 -4.59 0 0 0 1 0 "
         in="fbSourceGraphic"
         result="fbSourceGraphic" /><feColorMatrix
         result="fbSourceGraphicAlpha"
         in="fbSourceGraphic"
         values="0 0 0 -1 0 0 0 0 -1 0 0 0 0 -1 0 0 0 0 1 0"
         id="feColorMatrix614" /><feColorMatrix
         id="feColorMatrix616"
         values="2.91892 -2.55255 -2.55255 0 0.334347 -2.55255 2.91892 -2.55255 0 0.334347 -2.55255 -2.55255 2.91892 0 0.334347 0 0 0 1 0 "
         in="fbSourceGraphic"
         result="fbSourceGraphic" /><feColorMatrix
         result="fbSourceGraphicAlpha"
         in="fbSourceGraphic"
         values="0 0 0 -1 0 0 0 0 -1 0 0 0 0 -1 0 0 0 0 1 0"
         id="feColorMatrix618" /><feColorMatrix
         id="feColorMatrix620"
         values="2.91892 -2.55255 -2.55255 0 0.33 -2.55255 2.91892 -2.55255 0 0.33 -2.55255 -2.55255 2.91892 0 0.33 0 0 0 1 0 "
         in="fbSourceGraphic"
         result="fbSourceGraphic" /><feColorMatrix
         result="fbSourceGraphicAlpha"
         in="fbSourceGraphic"
         values="0 0 0 -1 0 0 0 0 -1 0 0 0 0 -1 0 0 0 0 1 0"
         id="feColorMatrix622" /><feComposite
         in2="fbSourceGraphic"
         id="feComposite624"
         operator="arithmetic"
         k1="0"
         k2="1"
         result="composite1"
         in="fbSourceGraphic" /><feColorMatrix
         id="feColorMatrix626"
         in="composite1"
         values="1"
         type="saturate"
         result="colormatrix1" /><feFlood
         id="feFlood628"
         flood-opacity="1"
         flood-color="rgb(158,67,0)"
         result="flood1" /><feBlend
         in2="colormatrix1"
         id="feBlend630"
         in="flood1"
         mode="multiply"
         result="blend1" /><feBlend
         in2="blend1"
         id="feBlend632"
         mode="screen"
         result="blend2" /><feColorMatrix
         id="feColorMatrix634"
         in="blend2"
         values="1"
         type="saturate"
         result="colormatrix2" /><feComposite
         in2="fbSourceGraphic"
         id="feComposite636"
         in="colormatrix2"
         operator="in"
         k2="1"
         result="fbSourceGraphic" /><feColorMatrix
         result="fbSourceGraphicAlpha"
         in="fbSourceGraphic"
         values="0 0 0 -1 0 0 0 0 -1 0 0 0 0 -1 0 0 0 0 1 0"
         id="feColorMatrix638" /><feComposite
         in2="fbSourceGraphic"
         id="feComposite640"
         operator="arithmetic"
         k1="0"
         k2="1"
         result="composite1"
         in="fbSourceGraphic" /><feColorMatrix
         id="feColorMatrix642"
         in="composite1"
         values="1"
         type="saturate"
         result="colormatrix1" /><feFlood
         id="feFlood644"
         flood-opacity="1"
         flood-color="rgb(158,67,0)"
         result="flood1" /><feBlend
         in2="colormatrix1"
         id="feBlend646"
         in="flood1"
         mode="multiply"
         result="blend1" /><feBlend
         in2="blend1"
         id="feBlend648"
         mode="screen"
         result="blend2" /><feColorMatrix
         id="feColorMatrix650"
         in="blend2"
         values="1"
         type="saturate"
         result="colormatrix2" /><feComposite
         in2="fbSourceGraphic"
         id="feComposite652"
         in="colormatrix2"
         operator="in"
         k2="1"
         result="fbSourceGraphic" /><feColorMatrix
         result="fbSourceGraphicAlpha"
         in="fbSourceGraphic"
         values="0 0 0 -1 0 0 0 0 -1 0 0 0 0 -1 0 0 0 0 1 0"
         id="feColorMatrix654" /><feComposite
         in2="fbSourceGraphic"
         id="feComposite656"
         operator="arithmetic"
         k1="0"
         k2="1"
         result="composite1"
         in="fbSourceGraphic" /><feColorMatrix
         id="feColorMatrix658"
         in="composite1"
         values="1"
         type="saturate"
         result="colormatrix1" /><feFlood
         id="feFlood660"
         flood-opacity="0.972549"
         flood-color="rgb(158,67,0)"
         result="flood1" /><feBlend
         in2="colormatrix1"
         id="feBlend662"
         in="flood1"
         mode="multiply"
         result="blend1" /><feBlend
         in2="blend1"
         id="feBlend664"
         mode="screen"
         result="blend2" /><feColorMatrix
         id="feColorMatrix666"
         in="blend2"
         values="1"
         type="saturate"
         result="colormatrix2" /><feComposite
         in2="fbSourceGraphic"
         id="feComposite668"
         in="colormatrix2"
         operator="in"
         k2="1"
         result="fbSourceGraphic" /><feColorMatrix
         result="fbSourceGraphicAlpha"
         in="fbSourceGraphic"
         values="0 0 0 -1 0 0 0 0 -1 0 0 0 0 -1 0 0 0 0 1 0"
         id="feColorMatrix754" /><feColorMatrix
         id="feColorMatrix756"
         values="7.2973 -0 -0 0 0.2 -0 7.2973 -0 0 0.2 -0 -0 7.2973 0 0.2 0 0 0 1 0 "
         in="fbSourceGraphic" /></filter></defs><sodipodi:namedview
     pagecolor="#ffffff"
     bordercolor="#666666"
     borderopacity="1"
     objecttolerance="10"
     gridtolerance="10"
     guidetolerance="10"
     inkscape:pageopacity="0"
     inkscape:pageshadow="2"
     inkscape:window-width="1850"
     inkscape:window-height="1003"
     id="namedview53"
     showgrid="false"
     inkscape:zoom="3.1783072"
     inkscape:cx="124.27999"
     inkscape:cy="262.56115"
     inkscape:window-x="0"
     inkscape:window-y="25"
     inkscape:window-maximized="0"
     inkscape:current-layer="g59" /><g
     id="g59"
     inkscape:groupmode="layer"
     inkscape:label="CALANGO_LOGO"
     transform="matrix(1.3333333,0,0,1.3333333,0,4.8923884e-6)"><path
       d="m 78.148,172.32 4.961,-1.008 c -1.632,0.586 -3.308,0.958 -4.961,1.008 m -7.546,1.532 4.632,-0.942 c -0.652,0.215 -1.296,0.453 -1.953,0.652 -0.922,0.286 -1.738,0.29 -2.679,0.29 M 145.629,5.34 c -2.113,-0.879 -4.363,-1.09 -6.531,-1.699 -5.465,-1.532 -10.996,-1.512 -16.614,-1.196 -6.839,0.387 -13.625,1.731 -20.281,3.504 -3.621,0.969 -7.332,1.93 -10.898,3.313 0.777,3.668 1.367,7.39 2,11.011 0.679,3.891 -0.461,7.442 -3.703,9.645 -7.278,4.945 -14.059,11.176 -18.719,18.852 0.273,2.855 0.683,5.699 1.152,8.488 0.547,3.226 1.164,6.554 2.153,9.644 0.921,2.879 2.468,5.602 3.816,8.231 1.359,2.652 2.66,5.047 4.473,7.308 1.503,1.875 3.085,3.61 4.777,5.258 3.226,3.156 6.398,6.348 9.367,9.824 5.379,6.297 11.266,11.961 16.32,18.637 2.305,3.047 3.817,6.656 5.301,10.262 0.934,2.277 2.086,5.277 2.07,7.871 -0.011,2.187 -0.839,4.824 -1.515,6.82 -0.434,1.282 -1.051,2.36 -1.613,3.551 -1.829,3.867 -4.465,7.383 -7.504,10.094 -2.043,1.824 -4.102,3.699 -6.43,5.008 -2.133,1.199 -4.324,2.23 -6.473,3.382 -1.871,1.008 -3.562,2.36 -5.457,3.317 -2.062,1.039 -4.222,1.926 -6.336,2.832 -2.625,1.121 -5.269,2.094 -7.937,3.008 -2.113,-0.141 -4.152,-0.891 -5.969,-2.567 -4.297,-3.976 -5.219,-11.363 -2.89,-16.984 1.898,-4.578 6.574,-9.57 11.308,-9.305 1.328,0.074 3.672,0.285 4.719,1.395 0.031,-1.481 -0.742,-2.676 -1.703,-3.543 -2.578,-2.324 -5.907,-1.742 -8.864,-0.93 -2.836,0.781 -5.468,2.109 -7.433,4.664 -1.563,2.031 -2.809,5.117 -3.403,7.61 -1.406,5.882 -1.804,12.781 0.645,18.414 0.992,2.289 2.141,3.964 3.887,5.554 2.211,2.012 6.133,3.586 8.941,4.278 5.262,1.293 10.766,0.312 15.531,-2.528 3.176,-1.886 6.063,-4.488 9.047,-6.738 1.43,-1.078 2.918,-2.094 4.325,-3.211 4.144,-3.297 7.874,-7.328 11.085,-11.781 5.133,-7.11 9.266,-15.981 9.204,-25.5 -0.039,-6.028 -1.555,-11.867 -3.422,-17.449 -2.344,-6.989 -5.371,-13.813 -8.262,-20.52 -1.27,-2.949 -3.082,-5.559 -4.152,-8.633 -1.051,-3.015 -1.879,-6.16 -2.789,-9.234 -1.625,-5.508 -3.004,-11.449 -2.801,-17.317 0.051,-1.472 0.347,-2.8 0.586,-4.234 0.175,-1.039 0.144,-2.074 0.508,-3.066 1.5,-4.118 3.23,-8.825 6.109,-11.895 1.219,-1.305 2.351,-2.597 3.543,-3.898 2.078,-2.262 4.754,-3.672 6.883,-5.844 2.343,-2.391 4.609,-4.664 7.152,-6.793 1.457,-1.223 3.047,-2.211 4.414,-3.578 1.109,-1.113 2.156,-2.039 3.371,-3.004 2.074,-1.641 3.996,-3.52 6.039,-5.207 1.215,-1 2.559,-1.941 3.629,-3.117 0.403,-0.442 1.07,-0.684 1.375,-1.16 -0.703,0.058 -1.398,-0.579 -2.031,-0.844"
       style="fill:#543114;fill-opacity:1;fill-rule:nonzero;stroke:none"
       id="path63" /><path
       d="m 75.754,140.402 c 1.746,0.036 3.504,0.207 5.238,0.477 2.223,0.344 4.082,2.863 5.363,4.828 1.333,2.047 1.723,3.766 1.551,6.391 -0.094,1.48 -0.695,2.988 -1.363,4.222 -0.543,1 -1.172,1.43 -1.984,1.992 -0.543,0.376 -1.004,0.899 -1.606,1.176 -1.441,0.668 -3.437,0.977 -4.898,0.399 -1.586,-0.625 -2.164,-1.485 -2.778,-3.317 -0.254,-0.754 -0.351,-0.754 -0.308,-1.965 -0.059,-0.753 0.113,-1.425 0.515,-2.015 0.305,-0.184 0.442,-0.426 0.414,-0.731 -1.039,1.02 -2.644,2.903 -1.863,4.426 1.11,2.156 4.969,2.41 6.879,1.824 1.418,-0.437 3.34,-1.828 4.078,-3.3 0.949,-1.895 0.977,-3.723 0.606,-5.84 -0.375,-2.145 -0.469,-4.18 -2.278,-5.43 -1.562,-1.074 -3.382,-0.676 -4.972,-1.539 -0.008,-0.109 -0.012,-0.219 -2.594,-1.598"
       style="fill:#543114;fill-opacity:1;fill-rule:nonzero;stroke:none"
       id="path65" /><path
       d="m 82.781,41.309 c -0.144,-0.118 -0.285,-0.239 -0.429,-0.356 -1.649,0.617 -0.422,3.016 1.097,2.645 1.031,-0.25 1.953,-1.235 2.16,-2.286 0.188,-0.953 0.051,-2.187 -1.152,-1.777"
       style="fill:#ffffff;fill-opacity:1;fill-rule:nonzero;stroke:none"
       id="path67" /><path
       d="m 90.039,44.855 c -1.601,-0.664 -2.402,3.34 -1.105,3.817 1.574,0.578 3.925,-3.551 2.222,-3.817"
       style="fill:#ffffff;fill-opacity:1;fill-rule:nonzero;stroke:none"
       id="path69" /><path
       d="m 83.34,53.137 c 0.051,1.609 -0.574,2.992 1.375,3.484 1.332,0.34 3.027,-0.738 3.09,-2.301"
       style="fill:#ffffff;fill-opacity:1;fill-rule:nonzero;stroke:none"
       id="path71" /><path
       d="m 79.434,48.996 c -1.133,-0.344 -1.586,0.969 -1.082,1.82 0.613,1.047 2.929,0.551 3.875,0.547"
       style="fill:#ffffff;fill-opacity:1;fill-rule:nonzero;stroke:none"
       id="path73" /><path
       d="m 87.805,66.148 c -0.668,1.223 -1.875,2.372 -0.512,3.551 1.746,1.512 3.246,-0.472 4.418,-1.777"
       style="fill:#ffffff;fill-opacity:1;fill-rule:nonzero;stroke:none"
       id="path75" /><path
       d="m 95.621,59.051 c 0.039,2.504 0.27,3.414 2.231,0.594"
       style="fill:#ffffff;fill-opacity:1;fill-rule:nonzero;stroke:none"
       id="path77" /><path
       d="m 111.25,8.188 c -1.574,-0.024 -2.344,-0.161 -3.707,0.621 -1.738,0.988 -3.109,2.453 -4.129,4.214 -1.219,2.11 -1.699,4.079 -0.941,6.477 0.625,1.969 2.191,2.688 3.968,3.445 4.567,1.95 9.571,-2.105 10.868,-6.82 0.683,-2.496 -1.664,-7.145 -4.387,-7.348"
       style="fill:#ffffff;fill-opacity:1;fill-rule:nonzero;stroke:none"
       id="path79" /><path
       d="m 101.203,76.203 c -0.648,1.477 -0.746,3.977 1.559,2.645 0.777,-0.45 1.8,-2.571 1.207,-3.356 C 103.336,74.66 102.078,75 101.203,75.02"
       style="fill:#ffffff;fill-opacity:1;fill-rule:nonzero;stroke:none"
       id="path81" /><path
       d="m 95.062,82.117 c -1.05,1.215 -1.984,2.469 0.071,3.278 1.633,0.644 3.097,-0.469 3.664,-2.153 -0.164,-0.441 -0.481,-0.621 -0.945,-0.531"
       style="fill:#ffffff;fill-opacity:1;fill-rule:nonzero;stroke:none"
       id="path83" /><path
       d="m 101.762,85.074 c -0.883,0.063 -0.782,1.567 -0.278,2.071 0.871,0.871 2.825,-0.426 3.067,-1.477"
       style="fill:#ffffff;fill-opacity:1;fill-rule:nonzero;stroke:none"
       id="path85" /><path
       d="m 103.992,95.129 c -0.672,0.547 -0.82,1.363 -0.191,1.965 0.789,0.754 1.578,0.008 2.426,-0.188"
       style="fill:#ffffff;fill-opacity:1;fill-rule:nonzero;stroke:none"
       id="path87" /><path
       d="m 88.922,169.652 c -1.176,0.024 -2.016,1.379 -1.625,2.524 0.5,1.48 3.223,2.164 3.859,0.433"
       style="fill:#ffffff;fill-opacity:1;fill-rule:nonzero;stroke:none"
       id="path89" /><path
       d="m 94.504,166.695 c -0.824,0.407 -2.133,1.621 -1.41,2.645 1.054,1.484 3.554,-0.711 4.203,-1.461"
       style="fill:#ffffff;fill-opacity:1;fill-rule:nonzero;stroke:none"
       id="path91" /><path
       d="m 100.086,163.148 c -0.281,0.704 -0.512,1.313 -0.918,1.926 0.644,1.383 1.512,1.008 2.59,0.442"
       style="fill:#ffffff;fill-opacity:1;fill-rule:nonzero;stroke:none"
       id="path93" /><path
       d="m 105.109,160.191 c 0.543,0.414 1.09,1.036 1.118,1.774"
       style="fill:#ffffff;fill-opacity:1;fill-rule:nonzero;stroke:none"
       id="path95" /><path
       d="m 80.551,176.16 c -0.41,0.516 -0.582,1.094 -0.516,1.727 0.352,0.125 0.707,0.144 1.074,0.047"
       style="fill:#231f20;fill-opacity:1;fill-rule:nonzero;stroke:none"
       id="path97" /><path
       d="m 115.715,15.875 c 0,2.125 -1.75,3.844 -3.906,3.844 -2.161,0 -3.911,-1.719 -3.911,-3.844 0,-2.121 1.75,-3.844 3.911,-3.844 2.156,0 3.906,1.723 3.906,3.844"
       style="fill:#543114;fill-opacity:1;fill-rule:nonzero;stroke:none;filter:url(#filter350)"
       id="path99" /><path
       d="m 145.715,88.477 c -4.348,0.558 -8.059,-4.356 -8.059,-8.539 0,-5.012 3.739,-7.981 8.059,-8.536 4.238,-0.547 8.402,-0.777 12.582,-0.433 0.133,-1.543 0.269,-3.086 0.332,-4.633 0.059,-1.305 0.137,-1.613 -1.07,-2.109 -2.215,-0.911 -4.903,0.281 -7.082,0.832 -4.36,1.097 -8.743,2.109 -13.11,3.199 -4.914,1.226 -10.183,1.961 -15.035,3.41 -1.449,0.434 -3.711,1.187 -4.43,2.746 -0.492,1.066 0.336,2.625 0.668,3.617 0.594,1.762 1.36,3.301 2.25,4.903 1.461,2.632 2.578,5.289 3.785,8.046 0.336,0.77 0.403,1.762 1.575,1.379 7.953,2.356 8.894,2.661 9.738,2.938 3,0.976 7.141,1.48 10.266,1.187 2.558,-0.242 6.308,-1.097 8.679,-2.32 1.321,-0.684 2.016,-1.68 2.52,-3.125 0.336,-0.961 0.535,-1.992 0.664,-3.059 -3.969,-0.574 -8.34,-0.019 -12.332,0.497"
       style="fill:#543114;fill-opacity:1;fill-rule:nonzero;stroke:none"
       id="path101" /><path
       d="M 84.406,89.262 C 82.492,88.703 80.672,87.766 78.723,87.234 75.18,86.27 71.246,87.102 67.809,85.938 c -0.563,0.703 0.121,1.613 0.285,2.378 0.492,2.258 0.199,4.899 0.152,7.223 -0.066,3.125 -1.34,7.086 -0.422,10.117 0.707,2.336 2.371,2.317 4.387,1.973 2.402,-0.41 4.941,-1.719 7.082,-2.945 2.074,-1.188 4.172,-2.739 5.094,-5.09 C 87,92.93 81.691,88.457 76.035,87.488"
       style="fill:#543114;fill-opacity:1;fill-rule:nonzero;stroke:none"
       id="path103" /><path
       d="m 59.844,79.594 c -0.266,-0.297 -0.477,-0.629 -0.625,-1 2.136,4.785 5.84,8.699 6.855,14.047 0.649,3.39 -0.461,6.609 -2.84,8.867 -3.32,3.144 -7.91,3.41 -11.914,5.129 -2.492,1.066 -6.539,3.808 -9.215,2.129 -3.667,-2.305 -4.433,-8.078 -4,-12.11 0.739,-6.898 3.399,-13.383 7.051,-19.086 0.571,-0.89 0.973,-1.734 1.875,-2.215 0.571,-0.304 1.02,0.422 1.649,-0.492"
       style="fill:#543114;fill-opacity:1;fill-rule:nonzero;stroke:none"
       id="path105" /><path
       d="m 23.566,92.867 c 1.817,-0.711 3.512,-2.41 5.008,-3.687 2.285,-1.953 4.535,-4.004 6.758,-6.039 1.762,-1.61 8.004,-7.743 6.176,-10.805 -0.942,-1.586 -5.055,-1.457 -6.621,-1.691 -4.926,-0.747 -9.778,-1.735 -14.77,-1.231 -2.512,0.254 -7.183,0.141 -7.429,3.527 -0.368,5.047 4.445,9.036 10.878,19.926"
       style="fill:#543114;fill-opacity:1;fill-rule:nonzero;stroke:none"
       id="path107" /><path
       d="m 173.051,72.305 c -0.356,-0.828 -2.543,-0.426 -2.949,-0.438 -1.571,-0.051 -3.114,-0.324 -4.684,-0.433 -1.301,-0.09 -4.531,-0.418 -5.566,0.847 -0.497,0.61 -0.586,2.653 -0.684,3.352 -0.32,2.234 -0.023,4.48 -0.391,6.734 -0.125,0.781 -0.015,1.567 -0.144,2.344 -0.078,0.453 -0.508,1.07 -0.332,1.531 0.281,0.742 1.679,0.918 2.265,1.074 1.422,0.375 2.434,0.829 3.954,0.813 0.835,-0.008 2.957,0.367 3.589,-0.238 0.004,-0.008 -0.019,0.05 -0.019,0.05 0.238,-0.625 0.773,-1.586 1.156,-2.117 0.027,0.031 -0.051,0.047 -0.027,0.004 0.593,0.578 0.246,2.805 0.234,3.633 -0.015,1.16 -0.234,1.648 0.848,1.851 0.793,0.149 2.773,-0.14 3.426,-0.535 0.457,-0.273 0.605,-0.507 0.648,-0.992 0.047,-0.551 -0.402,-2.183 -0.43,-2.582 -0.082,-1.262 -0.191,-2.512 -0.324,-3.773 -0.269,-2.625 -0.449,-5.196 -1.031,-7.77 -0.176,-0.773 -0.047,-3.055 -0.879,-3.594 -0.055,0.153 -0.285,0.071 1.34,0.239"
       style="fill:#543114;fill-opacity:1;fill-rule:nonzero;stroke:none"
       id="path109" /><path
       d="m 171.078,54.035 c 0,-0.726 0.008,-1.457 -0.012,-2.183 -0.132,0.75 0.461,0.914 0.602,1.535 0.293,1.316 -0.102,2.793 0.191,4.187 1.317,6.211 2.883,12.387 3.977,18.641 0.562,3.219 1.012,6.336 1.379,9.574 0.121,1.063 0.281,2.195 0.578,3.215 0.219,0.746 0.512,2.59 1.148,3.141 1.121,0.96 4.793,-2.047 6.102,-2.782 0.414,-0.234 3.215,-1.386 3.355,-1.781 0.227,-0.637 -0.64,-2.277 -0.781,-2.781 -2.152,-7.574 -4.015,-15.145 -6.808,-22.496 -0.747,-1.957 -1.469,-4.082 -2.344,-5.985 -0.262,-0.574 -0.762,-0.511 -0.434,-1.129 0.067,0.086 0.168,0.098 -6.953,-1.156"
       style="fill:#543114;fill-opacity:1;fill-rule:nonzero;stroke:none"
       id="path111" /><path
       d="m 203.277,74.797 c -0.324,-0.793 -2.324,-0.406 -2.691,-0.422 -1.441,-0.047 -2.848,-0.309 -4.281,-0.414 -1.188,-0.086 -4.141,-0.402 -5.086,0.816 -0.453,0.586 -0.535,2.551 -0.625,3.223 -0.293,2.152 -0.02,4.312 -0.356,6.48 -0.117,0.754 -0.011,1.508 -0.133,2.254 -0.07,0.438 -0.464,1.032 -0.304,1.473 0.258,0.715 1.535,0.887 2.07,1.035 1.301,0.363 2.223,0.797 3.609,0.781 0.766,-0.007 2.704,0.356 3.282,-0.226 0.004,-0.012 -0.016,0.047 -0.02,0.047 0.219,-0.602 0.711,-1.528 1.059,-2.035 0.027,0.027 -0.047,0.043 -0.024,0 0.543,0.558 0.223,2.699 0.215,3.5 -0.015,1.113 -0.215,1.586 0.774,1.777 0.726,0.144 2.531,-0.133 3.129,-0.512 0.417,-0.265 0.55,-0.488 0.589,-0.957 0.047,-0.527 -0.367,-2.101 -0.39,-2.484 -0.074,-1.215 -0.176,-2.418 -0.297,-3.629 -0.246,-2.524 -0.414,-5 -0.942,-7.477 -0.16,-0.742 -0.043,-2.937 -0.8,-3.457 -0.051,0.145 -0.262,0.067 1.222,0.227"
       style="fill:#543114;fill-opacity:1;fill-rule:nonzero;stroke:none"
       id="path113" /><path
       d="m 205.773,87.32 c 0.274,0.715 1.957,0.368 2.27,0.379 1.211,0.043 2.398,0.278 3.602,0.375 1,0.078 3.488,0.364 4.285,-0.738 0.379,-0.527 0.449,-2.297 0.523,-2.902 0.246,-1.938 0.02,-3.883 0.301,-5.836 0.098,-0.68 0.012,-1.36 0.113,-2.032 0.059,-0.394 0.391,-0.925 0.254,-1.328 -0.215,-0.64 -1.293,-0.797 -1.742,-0.929 -1.098,-0.325 -1.871,-0.719 -3.039,-0.704 -0.645,0.004 -2.278,-0.32 -2.766,0.204 0,0.011 0.016,-0.043 0.016,-0.039 -0.184,0.539 -0.594,1.371 -0.887,1.832 -0.023,-0.028 0.035,-0.04 0.02,-0.004 -0.457,-0.504 -0.192,-2.43 -0.184,-3.149 0.016,-1.004 0.184,-1.429 -0.652,-1.605 -0.61,-0.125 -2.129,0.125 -2.633,0.465 -0.352,0.238 -0.465,0.437 -0.496,0.859 -0.039,0.477 0.308,1.894 0.328,2.238 0.062,1.094 0.148,2.176 0.25,3.27 0.207,2.273 0.348,4.504 0.793,6.734 0.137,0.668 0.035,2.649 0.676,3.113 0.043,-0.128 0.218,-0.058 -1.032,-0.203"
       style="fill:#543114;fill-opacity:1;fill-rule:nonzero;stroke:none"
       id="path115" /><path
       d="m 169.699,94.891 h 0.563 c -3.418,0.062 -6.992,0.304 -10.313,1.25 -0.91,0.257 -1.902,0.273 -2.793,0.531 -0.25,0.07 -0.39,0.062 -0.594,0.242 -0.468,0.41 -0.789,1.234 -0.984,1.801 -1.336,3.851 -1.25,8.078 -2.129,12.031 -0.14,0.645 -0.847,2.125 -0.406,2.852 0.281,0.464 1.328,0.882 1.762,0.98 1.949,0.445 3.914,-0.375 5.816,-0.726 2.145,-0.399 4.535,-0.29 6.672,0.164 1.98,0.418 0.648,2.265 0.43,3.804 -0.078,0.555 -0.047,1.559 -0.559,1.86 -0.555,0.328 -1.75,-0.239 -2.289,-0.293 -0.641,-0.063 -1.152,0.14 -1.766,0.226 -0.679,0.094 -1.32,-0.09 -1.98,-0.199 -0.43,-0.07 -1.438,-0.324 -1.797,0.117 -0.805,-0.801 -0.785,-1.984 -1.348,-2.894 0,0 0.024,0.043 0.012,0.008 0.203,0.988 0.434,1.968 0.524,3.121 0.113,1.464 -0.219,2.804 -0.188,4.257 0.023,1.172 0.594,1.446 1.734,1.661 2.215,0.418 4.797,-0.008 7.016,-0.258 0.797,-0.09 2.516,0.285 3.066,-0.395 0.18,-0.222 0.52,-1.683 0.555,-1.785 0.875,-2.488 1.863,-4.934 2.84,-7.379 0.871,-2.179 1.816,-4.328 2.512,-6.578 0.496,-1.605 0.871,-3.246 1.425,-4.828 0.625,-1.77 1.196,-3.629 2.012,-5.316 0.196,-0.024 0.274,0.093 0.235,0.351"
       style="fill:#543114;fill-opacity:1;fill-rule:nonzero;stroke:none"
       id="path117" /><path
       d="m 184.402,110.121 c -0.414,-0.465 -0.656,-1.168 -0.953,-1.711 -0.73,-1.344 -1.988,-2.41 -2.613,-3.789 -0.621,-1.375 -0.383,-2.726 0.125,-4.051 0.922,-2.41 3.238,-4.132 4.844,-6.008 0.144,-0.3 0.347,-0.535 0.617,-0.71 0.234,-0.059 0.367,0.046 0.398,0.324 0.614,0.23 1.274,1.078 1.75,1.551 1.332,1.332 2.848,2.367 4.246,3.605 0.961,0.856 1.379,1.617 2.036,2.656 0.386,0.621 0.492,0.711 0.57,1.43 0.117,1.113 0.344,2.16 0.355,3.289 0.008,0.691 0.172,1.734 0.012,2.391 -0.219,0.91 -0.195,0.57 -0.918,0.648 -1.726,0.188 -3.391,0.438 -5.094,0.809 -1.402,0.304 -3.257,0.965 -4.726,0.996 0.062,-0.551 0.293,-1.028 -0.649,-1.43"
       style="fill:#543114;fill-opacity:1;fill-rule:nonzero;stroke:none"
       id="path119" /><path
       d="m 62.867,76.562 c -0.074,-0.218 -0.055,-0.417 0.059,-0.601 0.945,0.512 1.472,2.535 1.929,3.437 0.641,1.258 1.54,2.946 2.817,3.555 1.508,0.719 3.238,0.227 4.812,0.16 0.661,-0.027 1.289,-0.07 1.95,-0.136 0.441,-0.043 1.039,0.101 1.437,-0.118 -0.746,-1.25 -1.25,-3.105 -1.773,-4.527 C 73.5,76.73 73.242,74.59 72.227,73.18 71.648,72.375 70.812,72.613 69.93,72.742 c -1.16,0.168 -2.371,0.371 -3.516,0.633 -0.473,0.109 -1.613,0.203 -1.883,0.629 0.114,0.027 0.227,0.055 -1.664,2.558"
       style="fill:#543114;fill-opacity:1;fill-rule:nonzero;stroke:none"
       id="path121" /><path
       d="m 168.703,79.715 c 0,1.574 -1.121,2.847 -2.5,2.847 -1.383,0 -2.504,-1.273 -2.504,-2.847 0,-1.574 1.121,-2.852 2.504,-2.852 1.379,0 2.5,1.278 2.5,2.852"
       style="fill:#ffffff;fill-opacity:1;fill-rule:nonzero;stroke:none"
       id="path123" /><path
       d="m 200.047,81.973 c 0,1.738 -1.164,3.148 -2.598,3.148 -1.433,0 -2.594,-1.41 -2.594,-3.148 0,-1.735 1.161,-3.141 2.594,-3.141 1.434,0 2.598,1.406 2.598,3.141"
       style="fill:#ffffff;fill-opacity:1;fill-rule:nonzero;stroke:none"
       id="path125" /><path
       d="m 209.691,84.824 c 0,-2.551 0.789,-4.617 1.762,-4.617 0.973,0 1.762,2.066 1.762,4.617 0,2.551 -0.789,4.617 -1.762,4.617 -0.973,0 -1.762,-2.066 -1.762,-4.617"
       style="fill:#ffffff;fill-opacity:1;fill-rule:nonzero;stroke:none"
       id="path127" /><path
       d="m 191.332,103.102 c 0,1.679 -1.328,3.043 -2.969,3.043 -1.64,0 -2.968,-1.364 -2.968,-3.043 0,-1.684 1.328,-3.047 2.968,-3.047 1.641,0 2.969,1.363 2.969,3.047"
       style="fill:#ffffff;fill-opacity:1;fill-rule:nonzero;stroke:none"
       id="path129" /><path
       d="m 168.891,104.672 c 0,1.898 -1.953,3.437 -4.36,3.437 -2.406,0 -4.355,-1.539 -4.355,-3.437 0,-1.899 1.949,-3.438 4.355,-3.438 2.407,0 4.36,1.539 4.36,3.438"
       style="fill:#ffffff;fill-opacity:1;fill-rule:nonzero;stroke:none"
       id="path131" /><path
       d="m 123.184,129.688 c -0.133,-0.215 -0.297,-0.403 -0.477,-0.571 l 0.332,0.625 z"
       style="fill:#543114;fill-opacity:1;fill-rule:nonzero;stroke:none"
       id="path133" /><path
       d="m 96.477,129.496 c 0,0 -0.004,0 -0.008,-0.004 0,0.008 0,0.012 0.008,0.004"
       style="fill:#543114;fill-opacity:1;fill-rule:nonzero;stroke:none"
       id="path135" /><path
       d="m 96.355,129.465 c 0.051,0.019 0.086,0.055 0.094,0.117 0.008,-0.047 0.012,-0.078 0.016,-0.098 -0.004,0 -0.016,0 -0.02,-0.004 -0.019,0.032 -0.023,0.047 -0.09,-0.015"
       style="fill:#543114;fill-opacity:1;fill-rule:nonzero;stroke:none"
       id="path137" /><path
       d="m 86.094,117.859 c 0.011,0.082 0.027,0.161 0.043,0.243 0,0 -0.004,0 -0.004,0 l -0.16,-0.254 c 0.039,0.004 0.082,0.007 0.121,0.011 m 28.742,-2.203 c -1.055,-0.511 -1.93,-1.656 -2.856,-2.39 -1.039,-0.825 -1.957,-1.789 -2.945,-2.68 -1.226,-1.106 -2.551,-2.031 -3.89,-2.965 -1.543,-1.082 -3.094,-2.152 -4.594,-3.305 -1.012,-0.777 -1.996,-1.515 -3.188,-1.976 -0.933,-0.36 -2.019,-0.871 -3.019,-0.828 -0.207,0.008 -1.043,-0.012 -1.153,0.074 -0.234,0.191 -0.171,0.578 -0.195,0.855 -0.086,1.043 -0.105,2.012 -0.019,3.063 0.257,3.078 0.8,6.125 1.5,9.125 0.339,1.473 0.679,2.953 1.062,4.418 0.246,0.945 0.594,1.82 0.656,2.805 0.032,0.472 -0.023,1.57 0.184,2.3 -0.059,-0.023 -0.113,-0.047 -0.16,-0.07 -1.129,-0.598 -2.168,-1.484 -3.285,-2.129 -0.762,-0.441 -1.543,-0.867 -2.266,-1.379 -0.676,-0.476 -1.254,-1.094 -1.922,-1.586 -0.613,-0.449 -1.199,-0.996 -1.832,-1.406 -0.23,-0.148 -0.574,-0.422 -0.855,-0.293 -0.004,0.191 0.007,0.375 0.031,0.555 -0.485,-0.477 -0.942,-1.149 -1.492,-1.481 -0.157,-0.093 -0.325,-0.152 -0.496,-0.199 0.148,0.227 0.3,0.453 0.468,0.66 0.368,0.461 0.868,1.117 1.403,1.492 v 0.008 l 0.004,-0.004 c 0.082,0.059 0.168,0.11 0.253,0.157 0.645,2.074 3.004,3.566 4.665,4.445 0.878,0.469 1.855,1.031 2.582,1.726 0.312,0.301 0.605,0.641 0.961,0.883 -0.29,-0.258 -0.59,-0.324 -0.969,-0.402 -1.461,-0.313 -2.961,-0.293 -4.434,-0.5 -0.969,-0.133 -1.922,-0.457 -2.906,-0.465 -0.781,-0.008 -1.567,0.191 -2.332,0.336 -0.652,0.121 -2.695,0.484 -2.527,1.551 -0.141,-0.035 -0.282,-0.067 -0.426,-0.09 0.144,0.051 0.293,0.109 0.433,0.184 l 0.004,-0.004 c 0.02,0.07 0.043,0.14 0.082,0.218 0.504,1.012 2.258,0.926 3.149,0.86 1.742,-0.137 3.547,-0.446 5.254,-0.836 1,-0.227 1.664,-0.02 2.632,0.179 0.454,0.094 0.813,0.063 1.184,0.368 -0.355,-0.188 -1.051,-0.129 -1.445,-0.086 -1.375,0.148 -2.821,0.636 -4.008,1.383 -1.492,0.929 -2.699,2.253 -3.973,3.476 -0.359,0.344 -1.797,1.434 -1.629,2.32 -0.082,0.079 -0.156,0.161 -0.242,0.231 0.098,-0.031 0.192,-0.063 0.285,-0.102 0.02,0.047 0.02,0.098 0.051,0.145 0.391,0.605 1.356,-0.012 1.715,-0.254 1.391,-0.938 2.648,-1.996 3.984,-3 1.024,-0.773 2.082,-1.395 3.176,-2.027 0.309,-0.18 0.766,-0.586 1.18,-0.789 -0.317,0.203 -0.555,0.617 -0.75,0.878 -0.895,1.196 -1.426,2.336 -1.93,3.782 -0.297,0.855 -2.086,5.816 -0.766,6.386 l -0.039,0.598 c 0.039,-0.187 0.079,-0.379 0.114,-0.562 0.019,0.003 0.031,0.015 0.054,0.019 0.614,0.113 1.161,-1.305 1.317,-1.621 0.699,-1.426 1.285,-2.906 1.988,-4.332 0.59,-1.187 1.066,-2.422 1.613,-3.629 0.129,-0.285 0.266,-0.582 0.379,-0.887 -0.07,0.289 -0.125,0.582 -0.164,0.864 -0.234,1.718 -0.387,3.461 -0.265,5.191 0.105,1.465 -0.114,2.957 0.058,4.41 0.113,0.965 0.399,1.688 1.156,2.086 l 0.145,2.031 c -0.106,-0.121 -0.184,-0.257 -0.242,-0.406 0.039,0.418 0.113,0.848 0.261,1.235 0.008,-0.575 -0.019,-1.208 -0.019,-1.754 0.004,-0.34 0.027,-0.688 0.016,-1.036 0.078,0.036 0.156,0.071 0.242,0.098 0.988,-1.117 0.886,-3.41 0.945,-4.879 0.055,-1.238 -0.074,-2.461 -0.156,-3.691 -0.078,-1.199 -0.059,-2.383 -0.34,-3.551 0.027,0 0.039,0.004 0.062,0.008 -0.003,-0.004 -0.003,-0.004 -0.003,-0.004 0,0 0,0 0.003,0.004 0.043,0.004 0.075,0.012 0.09,0.015 0.008,-0.015 0.016,-0.027 0.035,-0.039 0,0.016 0,0.02 -0.003,0.032 0.011,-0.016 0.027,-0.035 0.054,-0.059 0.739,-0.582 1.227,-1.863 1.77,-2.594 1.094,-1.48 2.242,-2.922 3.41,-4.332 0.371,-0.449 1.059,-1.543 1.512,-1.629 0.742,0.414 1.355,0.922 2.16,1.297 2.125,0.989 4.305,1.871 6.488,2.699 1.516,0.575 3.031,1.11 4.594,1.528 1.027,0.277 2.023,0.699 3.047,0.969 0.008,0.039 0.011,0.078 0.015,0.117 0.035,-0.137 1.192,0.465 1.364,0.554 0.617,0.309 1.293,0.61 1.816,1.094 l -7.074,-13.273 c -0.278,0.023 -0.547,-0.067 -0.797,-0.188"
       style="fill:#543114;fill-opacity:1;fill-rule:nonzero;stroke:none"
       id="path139" /><path
       d="m 96.465,129.488 c 0.004,0 0.004,0.004 0.008,0.004 0,-0.004 0,-0.008 0.004,-0.012 -0.008,-0.023 -0.008,-0.031 -0.012,0.008"
       style="fill:#543114;fill-opacity:1;fill-rule:nonzero;stroke:none"
       id="path141" /><path
       d="m 96.477,129.496 c 0,0.004 0,0.008 0.007,0.004 -0.004,-0.008 -0.004,-0.012 -0.007,-0.016 0,0.008 0,0.012 0,0.012"
       style="fill:#543114;fill-opacity:1;fill-rule:nonzero;stroke:none"
       id="path143" /><path
       d="m 83.152,114.762 c -0.726,-0.231 -1.308,1.25 -1.586,1.648 0.754,-0.222 1.715,-0.472 2.536,-0.246 -0.168,-0.262 -0.332,-0.523 -0.5,-0.777 -0.11,-0.164 -0.274,-0.567 -0.45,-0.625"
       style="fill:#543114;fill-opacity:1;fill-rule:nonzero;stroke:none"
       id="path145" /><path
       d="m 77.027,126.781 c 0,-0.219 0.004,-0.437 0.008,-0.656 -0.023,0.258 -0.031,0.488 -0.008,0.656"
       style="fill:#543114;fill-opacity:1;fill-rule:nonzero;stroke:none"
       id="path147" /><path
       d="m 77.035,126.125 c 0.035,-0.387 0.121,-0.82 0.242,-1.18 -0.093,-0.019 -0.175,-0.05 -0.265,-0.133 0.035,0.434 0.027,0.872 0.023,1.313"
       style="fill:#543114;fill-opacity:1;fill-rule:nonzero;stroke:none"
       id="path149" /><path
       d="m 77.633,124.309 c -0.141,0.113 -0.258,0.351 -0.356,0.636 0.086,0.016 0.172,0.024 0.278,0.055 0.445,0.137 0.851,0.391 1.289,0.559 0.636,0.238 1.332,0.281 2,0.402 -0.453,-0.164 -0.926,-0.266 -1.356,-0.512 -0.636,-0.359 -1.207,-0.804 -1.855,-1.14"
       style="fill:#543114;fill-opacity:1;fill-rule:nonzero;stroke:none"
       id="path151" /><path
       d="m 79.285,135.68 c 0.305,0.652 0.738,1.453 0.645,2.246 -0.032,-0.25 0.093,-0.395 0.16,-0.606 0.191,-0.605 0.285,-1.238 0.519,-1.828 0.082,-0.203 0.153,-0.437 0.321,-0.547 0.152,-0.027 0.304,-0.058 0.461,-0.093 0.324,-0.161 0.617,-0.364 0.894,-0.598 -0.308,0.109 -0.617,0.207 -0.902,0.355 -0.664,0.34 -1.5,0.61 -2.098,1.071"
       style="fill:#543114;fill-opacity:1;fill-rule:nonzero;stroke:none"
       id="path153" /><path
       d="m 89.102,141.309 0.089,-1.438 c -0.121,0.57 -0.246,1.106 -0.328,1.434 0.078,0 0.153,0.004 0.239,0.004"
       style="fill:#543114;fill-opacity:1;fill-rule:nonzero;stroke:none"
       id="path155" /><path
       d="m 88.586,143.277 c 0.07,0.114 0.18,0.18 0.297,0.239 -0.039,-0.086 -0.071,-0.172 -0.098,-0.243 -0.129,-0.378 -0.094,-0.765 -0.152,-1.152 -0.125,0.414 -0.238,0.867 -0.047,1.156"
       style="fill:#543114;fill-opacity:1;fill-rule:nonzero;stroke:none"
       id="path157" /><path
       d="m 88.453,141.34 c 0.008,0.234 0.125,0.469 0.172,0.703 0.004,0.027 0.004,0.051 0.008,0.078 0.055,-0.183 0.113,-0.359 0.152,-0.508 0.012,-0.043 0.039,-0.152 0.078,-0.308 -0.133,-0.004 -0.265,0.004 -0.41,0.035"
       style="fill:#543114;fill-opacity:1;fill-rule:nonzero;stroke:none"
       id="path159" /><path
       d="m 89.477,143.875 c -0.145,-0.187 -0.383,-0.254 -0.594,-0.359 0.121,0.257 0.316,0.511 0.594,0.359"
       style="fill:#543114;fill-opacity:1;fill-rule:nonzero;stroke:none"
       id="path161" /><path
       d="m 96.18,145.109 c -0.274,-0.218 -0.45,-0.515 -0.575,-0.839 -0.003,0.253 -0.011,0.5 -0.035,0.714 0.164,0.149 0.403,0.157 0.61,0.125"
       style="fill:#543114;fill-opacity:1;fill-rule:nonzero;stroke:none"
       id="path163" /><path
       d="m 115.535,125.637 0.25,-0.621 c -0.137,0.164 -0.262,0.351 -0.363,0.57 0.039,0.016 0.074,0.035 0.113,0.051"
       style="fill:#543114;fill-opacity:1;fill-rule:nonzero;stroke:none"
       id="path165" /><path
       d="m 135.766,125.395 c 0.004,0.003 0.004,0.003 0.007,0 -0.003,-0.004 -0.003,-0.008 -0.003,-0.016 0,0.008 -0.004,0.012 -0.004,0.016"
       style="fill:#543114;fill-opacity:1;fill-rule:nonzero;stroke:none"
       id="path167" /><path
       d="m 143.637,114.031 c 0,0 0,0 0,-0.004 z m 1.793,6.364 c -0.582,-0.145 -1.18,-0.344 -1.778,-0.336 -0.746,0.011 -1.476,0.332 -2.214,0.468 -1.122,0.207 -2.262,0.188 -3.376,0.496 -0.289,0.082 -0.515,0.149 -0.738,0.407 0.27,-0.242 0.496,-0.586 0.731,-0.883 0.554,-0.695 1.3,-1.262 1.968,-1.727 1.262,-0.879 3.047,-2.371 3.539,-4.441 0.071,-0.043 0.141,-0.098 0.211,-0.164 v 0.004 c 0,0 0,0 0,-0.004 0.407,-0.379 0.789,-1.035 1.071,-1.492 0.125,-0.211 0.242,-0.434 0.355,-0.664 -0.133,0.046 -0.258,0.109 -0.379,0.199 -0.425,0.336 -0.777,1.023 -1.148,1.5 0.031,-0.004 0.066,-0.008 0.101,-0.012 l -0.121,0.254 -0.011,-0.008 c 0.039,-0.262 0.07,-0.527 0.066,-0.804 -0.215,-0.129 -0.477,0.14 -0.652,0.292 -0.481,0.411 -0.93,0.954 -1.395,1.407 -0.508,0.488 -0.949,1.105 -1.465,1.582 -0.55,0.511 -1.144,0.941 -1.722,1.379 -0.852,0.644 -1.645,1.531 -2.504,2.129 -0.035,0.023 -0.078,0.046 -0.121,0.07 0.152,-0.731 0.113,-1.824 0.136,-2.297 0.047,-0.984 0.313,-1.863 0.5,-2.809 0.293,-1.461 0.551,-2.945 0.813,-4.418 0.531,-2.996 0.945,-6.043 1.141,-9.121 0.066,-1.054 0.05,-2.019 -0.016,-3.062 -0.016,-0.278 0.027,-0.664 -0.149,-0.856 -0.082,-0.086 -0.718,-0.066 -0.878,-0.074 -0.762,-0.043 -1.59,0.469 -2.297,0.828 -0.91,0.457 -1.66,1.196 -2.434,1.977 -1.141,1.152 -2.32,2.223 -3.5,3.301 -1.019,0.937 -2.027,1.863 -2.961,2.964 -0.754,0.891 -1.453,1.856 -2.246,2.68 -0.703,0.738 -1.371,1.879 -2.176,2.395 -0.187,0.121 -0.394,0.211 -0.605,0.183 l -5.391,13.278 c 0.399,-0.485 0.914,-0.789 1.383,-1.098 0.137,-0.09 1.016,-0.691 1.039,-0.551 0.004,-0.039 0.008,-0.078 0.016,-0.117 0.777,-0.27 1.539,-0.691 2.32,-0.969 1.187,-0.422 2.344,-0.953 3.5,-1.527 1.66,-0.828 3.324,-1.711 4.941,-2.699 0.614,-0.375 1.082,-0.887 1.649,-1.297 0.344,0.086 0.867,1.176 1.148,1.625 0.891,1.414 1.766,2.855 2.602,4.336 0.41,0.73 0.781,2.011 1.347,2.593 0.02,0.024 0.032,0.04 0.04,0.055 0,-0.008 -0.004,-0.015 0,-0.031 0.011,0.012 0.019,0.027 0.023,0.043 0.016,-0.008 0.035,-0.016 0.07,-0.02 0,0 0,0 0.004,-0.004 0,0 0,0.004 -0.004,0.004 0.016,0 0.028,-0.004 0.047,-0.007 -0.215,1.171 -0.199,2.351 -0.258,3.55 -0.062,1.235 -0.16,2.457 -0.121,3.696 0.047,1.468 -0.035,3.761 0.723,4.875 0.074,-0.032 0.125,-0.086 0.195,-0.125 -0.011,0.355 -0.004,0.714 0,1.066 0,0.543 -0.019,1.176 -0.015,1.754 0.113,-0.391 0.168,-0.82 0.203,-1.238 -0.047,0.152 -0.11,0.289 -0.188,0.41 l 0.113,-2.067 c 0.559,-0.398 0.793,-1.101 0.879,-2.054 0.129,-1.449 -0.035,-2.946 0.043,-4.41 0.094,-1.731 -0.023,-3.469 -0.199,-5.192 -0.055,-0.492 -0.137,-1.051 -0.273,-1.512 0.074,0.528 0.269,1.055 0.433,1.536 0.418,1.211 0.782,2.441 1.231,3.632 0.535,1.422 0.98,2.903 1.515,4.329 0.118,0.316 0.536,1.738 1.004,1.625 0.016,-0.004 0.024,-0.016 0.039,-0.024 0.028,0.188 0.055,0.375 0.086,0.563 l -0.031,-0.594 c 1.008,-0.57 -0.355,-5.535 -0.582,-6.391 -0.383,-1.441 -0.789,-2.582 -1.469,-3.781 -0.148,-0.262 -0.332,-0.672 -0.57,-0.875 0.316,0.203 0.66,0.609 0.894,0.785 0.836,0.637 1.641,1.258 2.422,2.031 1.016,1.004 1.977,2.063 3.036,3 0.273,0.243 1.011,0.856 1.308,0.254 0.024,-0.047 0.024,-0.097 0.039,-0.144 0.071,0.035 0.145,0.066 0.215,0.101 -0.062,-0.07 -0.125,-0.152 -0.184,-0.23 0.129,-0.887 -0.964,-1.977 -1.242,-2.32 -0.968,-1.223 -1.886,-2.547 -3.027,-3.481 -0.906,-0.742 -2.004,-1.234 -3.055,-1.383 -0.297,-0.043 -0.828,-0.097 -1.097,0.086 0.281,-0.304 0.554,-0.273 0.898,-0.363 0.742,-0.199 1.246,-0.41 2.008,-0.18 1.301,0.391 2.676,0.699 4.004,0.832 0.679,0.071 2.015,0.153 2.398,-0.859 0.031,-0.078 0.027,-0.149 0.043,-0.223 l 0.024,0.008 c 0.105,-0.07 0.218,-0.129 0.328,-0.184 -0.114,0.028 -0.227,0.063 -0.34,0.098 0.129,-1.066 -1.41,-1.433 -1.91,-1.558"
       style="fill:#543114;fill-opacity:1;fill-rule:nonzero;stroke:none"
       id="path169" /><path
       d="m 135.797,125.379 c -0.008,0 -0.016,0.004 -0.016,0.004 0,0.019 0.004,0.047 0.012,0.094 0.004,-0.059 0.031,-0.098 0.07,-0.118 -0.051,0.063 -0.054,0.051 -0.066,0.02"
       style="fill:#543114;fill-opacity:1;fill-rule:nonzero;stroke:none"
       id="path171" /><path
       d="m 135.773,125.375 c 0,0.008 0,0.012 0,0.016 0.004,0 0.004,-0.004 0.008,-0.008 -0.004,-0.035 -0.004,-0.028 -0.008,-0.008"
       style="fill:#543114;fill-opacity:1;fill-rule:nonzero;stroke:none"
       id="path173" /><path
       d="m 147.129,112.305 c -0.211,-0.395 -0.652,-1.879 -1.207,-1.645 -0.137,0.055 -0.258,0.457 -0.344,0.621 -0.125,0.254 -0.25,0.52 -0.379,0.778 0.625,-0.223 1.356,0.027 1.93,0.246"
       style="fill:#543114;fill-opacity:1;fill-rule:nonzero;stroke:none"
       id="path175" /><path
       d="m 150.59,122.676 c 0.015,-0.164 0.012,-0.399 -0.008,-0.656 0.004,0.218 0.008,0.441 0.008,0.656"
       style="fill:#543114;fill-opacity:1;fill-rule:nonzero;stroke:none"
       id="path177" /><path
       d="m 150.602,120.707 c -0.071,0.086 -0.133,0.113 -0.204,0.133 0.094,0.359 0.157,0.793 0.184,1.18 -0.004,-0.438 -0.008,-0.879 0.02,-1.313"
       style="fill:#543114;fill-opacity:1;fill-rule:nonzero;stroke:none"
       id="path179" /><path
       d="m 148.715,121.348 c -0.328,0.246 -0.688,0.347 -1.035,0.507 0.511,-0.117 1.039,-0.16 1.527,-0.402 0.332,-0.164 0.641,-0.418 0.981,-0.555 0.078,-0.035 0.144,-0.043 0.21,-0.058 -0.074,-0.285 -0.164,-0.524 -0.269,-0.633 -0.496,0.332 -0.93,0.781 -1.414,1.141"
       style="fill:#543114;fill-opacity:1;fill-rule:nonzero;stroke:none"
       id="path181" /><path
       d="m 147.266,130.75 c 0.117,0.035 0.234,0.066 0.351,0.09 0.125,0.109 0.18,0.344 0.242,0.551 0.18,0.589 0.25,1.222 0.395,1.828 0.051,0.211 0.144,0.355 0.125,0.601 -0.07,-0.793 0.254,-1.593 0.488,-2.242 -0.453,-0.461 -1.09,-0.73 -1.597,-1.074 -0.215,-0.145 -0.454,-0.246 -0.688,-0.352 0.211,0.231 0.434,0.438 0.684,0.598"
       style="fill:#543114;fill-opacity:1;fill-rule:nonzero;stroke:none"
       id="path183" /><path
       d="m 141.105,139.77 c 0.211,0.152 0.356,-0.098 0.45,-0.356 -0.16,0.106 -0.344,0.172 -0.45,0.356"
       style="fill:#543114;fill-opacity:1;fill-rule:nonzero;stroke:none"
       id="path185" /><path
       d="m 141.746,138.027 c 0.004,-0.027 0.004,-0.058 0.008,-0.086 0.035,-0.234 0.121,-0.468 0.129,-0.703 -0.11,-0.035 -0.211,-0.039 -0.313,-0.035 0.032,0.152 0.051,0.266 0.059,0.305 0.031,0.152 0.074,0.332 0.117,0.519"
       style="fill:#543114;fill-opacity:1;fill-rule:nonzero;stroke:none"
       id="path187" /><path
       d="m 141.57,137.203 c -0.062,-0.328 -0.16,-0.867 -0.25,-1.437 l 0.071,1.441 c 0.062,-0.004 0.121,-0.004 0.179,-0.004"
       style="fill:#543114;fill-opacity:1;fill-rule:nonzero;stroke:none"
       id="path189" /><path
       d="m 141.555,139.414 c 0.09,-0.059 0.172,-0.125 0.23,-0.238 0.141,-0.289 0.059,-0.735 -0.039,-1.149 -0.043,0.387 -0.019,0.766 -0.117,1.141 -0.02,0.074 -0.043,0.16 -0.074,0.246"
       style="fill:#543114;fill-opacity:1;fill-rule:nonzero;stroke:none"
       id="path191" /><path
       d="m 136.461,140.883 c -0.02,-0.219 -0.023,-0.465 -0.027,-0.715 -0.094,0.324 -0.227,0.621 -0.438,0.84 0.16,0.031 0.34,0.019 0.465,-0.125"
       style="fill:#543114;fill-opacity:1;fill-rule:nonzero;stroke:none"
       id="path193" /><path
       d="m 78.816,55.289 c -0.375,-0.109 -0.91,0.559 -1.128,0.707 -0.645,0.438 -1.481,0.738 -2.215,0.957 -1.598,0.481 -3.032,1.09 -4.563,1.77 -1.117,0.492 -2.023,1.058 -3.004,1.73 -0.285,0.195 -0.605,0.344 -0.886,0.488 -0.336,-0.246 -0.454,-0.898 -0.645,-1.265 -0.93,-1.805 -1.395,-3.832 -2.078,-5.75 -0.531,-1.492 -0.906,-3.043 -1.453,-4.528 -0.16,-0.429 -0.375,-0.996 -0.594,-1.336 1.309,-1.324 2.848,-2.355 4.086,-3.8 0.887,-1.035 1.891,-1.992 2.687,-3.106 0.442,-0.617 1.11,-1.64 1.258,-2.515 l 0.703,-1.118 c -0.269,0.278 -0.511,0.555 -0.679,0.832 0.004,-0.043 0.011,-0.085 0.011,-0.128 -0.484,-0.153 -1.211,0.378 -1.597,0.668 -1.004,0.738 -2.028,1.808 -2.848,2.761 -0.961,1.121 -2.312,2.215 -2.949,3.606 0.211,-2.231 -0.113,-4.481 -0.438,-6.676 -0.168,-1.125 -0.164,-3.125 -1.05,-3.93 -1.067,1.926 -0.602,4.274 -0.723,6.367 -0.047,0.848 -0.242,1.637 -0.234,2.504 0.003,0.575 -0.028,1.164 0.015,1.735 -0.273,-0.555 -0.765,-1.071 -1.097,-1.625 -0.77,-1.289 -1.676,-2.543 -2.641,-3.676 -0.774,-0.914 -1.777,-1.414 -2.781,-1.984 -0.317,-0.18 -1.051,-0.696 -1.43,-0.438 -0.145,0.102 -0.188,0.316 -0.176,0.578 -0.137,-0.199 -0.301,-0.387 -0.492,-0.562 0.227,0.383 0.375,0.777 0.328,1.148 h 0.254 c 0.129,0.543 0.352,1.106 0.418,1.309 0.566,1.726 1.422,3.054 2.742,4.211 0.621,0.547 1.336,0.968 1.926,1.547 0.328,0.324 0.777,0.55 1.07,0.898 -1.441,-0.902 -2.906,-1.606 -4.539,-2.082 -1.394,-0.406 -2.797,-0.606 -4.226,-0.238 -0.625,0.16 -1.84,0.535 -2.274,1.195 -1.359,-0.059 -2.703,-0.191 -4.066,-0.211 -0.289,-0.039 -0.574,-0.023 -0.856,0.039 -0.109,0.129 -0.132,0.277 -0.066,0.441 -0.07,0.145 -0.133,0.504 -0.191,0.672 0.171,-0.078 0.449,-0.226 0.64,-0.199 l 4.449,-0.59 c -0.898,1.996 3.633,2.871 4.461,3 1.914,0.297 4.207,-0.101 6.032,0.688 -1.067,-0.012 -1.875,-0.403 -3.008,-0.141 -0.707,0.168 -1.332,0.504 -1.992,0.805 -1.266,0.574 -2.497,1.012 -3.485,2.101 -0.398,0.442 -1.199,1.184 -1.019,1.856 0.047,0.172 0.148,0.301 0.265,0.41 -0.261,0.07 -0.511,0.16 -0.672,0.203 -0.234,0.063 -0.457,0.129 -0.679,0.195 0.039,0 0.078,0 0.121,0.004 l 1.558,-0.183 c 0.184,0.082 0.375,0.144 0.559,0.179 2.121,0.407 3.969,-1.277 5.633,-2.347 0.734,-0.473 1.504,-0.93 2.254,-1.367 0.324,-0.188 0.679,-0.426 1.066,-0.34 0.328,0.07 0.234,0.058 0.422,0.355 0.484,0.758 0.941,2.317 1.195,3.117 1.094,3.434 1.403,7.102 2.082,10.645 0.309,1.609 0.539,3.117 0.731,4.734 0.039,0.317 0.254,0.957 0.125,1.25 0.183,-0.265 0.914,-0.328 1.203,-0.421 1.832,-0.606 3.566,-1.29 5.461,-1.672 1.781,-0.364 3.519,-0.571 5.328,-0.325 0.91,0.121 1.965,0.211 2.797,0.653 0,0.058 0,0.117 0,0.176 z"
       style="fill:#543114;fill-opacity:1;fill-rule:nonzero;stroke:none"
       id="path195" /><path
       d="m 61.148,34.672 c 0.395,-0.234 -0.214,-1.352 -0.328,-1.68 -0.238,-0.707 -0.382,-1.433 -0.578,-2.148 -0.051,-0.188 0.07,-0.297 -0.117,-0.438 0.328,1.684 0.785,3.242 0.801,4.977 z"
       style="fill:#543114;fill-opacity:1;fill-rule:nonzero;stroke:none"
       id="path197" /><path
       d="m 50.637,36.086 c -0.508,-0.488 -1.055,-1.32 -1.707,-1.57 0.382,0.703 0.547,1.011 1.168,1.613 0.441,0.433 1.195,0.887 1.777,1.426 -0.348,-0.586 -0.887,-1.137 -1.238,-1.469"
       style="fill:#543114;fill-opacity:1;fill-rule:nonzero;stroke:none"
       id="path199" /><path
       d="m 43.195,57.246 c 0.024,0.07 0.184,0.195 0.231,0.274 0.156,0.261 0.129,0.558 0.336,0.785 0.629,-0.942 1.16,-2.25 2.035,-2.973 -0.68,0.258 -1.34,0.57 -2,0.98 -0.485,0.297 -0.781,0.426 -0.602,0.934"
       style="fill:#543114;fill-opacity:1;fill-rule:nonzero;stroke:none"
       id="path201" /><path
       d="m 45.797,55.332 c 0.512,-0.199 1.043,-0.363 1.59,-0.523 -0.649,-0.043 -1.164,0.168 -1.59,0.523"
       style="fill:#543114;fill-opacity:1;fill-rule:nonzero;stroke:none"
       id="path203" /><path
       d="m 70.988,37.516 -0.004,0.007 c 0.004,-0.003 0.004,-0.003 0.008,-0.007 -0.004,0 -0.004,0 -0.004,0"
       style="fill:#543114;fill-opacity:1;fill-rule:nonzero;stroke:none"
       id="path205" /><path
       d="m 71.246,37.262 c -0.086,0.082 -0.172,0.168 -0.254,0.254 0.055,-0.012 0.113,-0.024 0.172,-0.032 0.016,-0.082 0.051,-0.152 0.082,-0.222"
       style="fill:#543114;fill-opacity:1;fill-rule:nonzero;stroke:none"
       id="path207" /><path
       d="m 72.395,35.082 c -0.29,-0.605 -1.09,-0.918 -1.622,-1.391 0.27,0.45 0.508,0.969 0.672,1.375 0.129,0.317 0.305,0.895 0.243,1.27 -0.059,0.336 -0.305,0.605 -0.446,0.926 0.738,-0.735 1.496,-1.461 1.153,-2.18"
       style="fill:#543114;fill-opacity:1;fill-rule:nonzero;stroke:none"
       id="path209" /><path
       d="m 70.773,33.691 c -0.132,-0.222 -0.277,-0.433 -0.425,-0.589 0.078,0.23 0.234,0.421 0.425,0.589"
       style="fill:#543114;fill-opacity:1;fill-rule:nonzero;stroke:none"
       id="path211" /><path
       d="m 128.938,37.406 c 0.457,-1.668 1.339,-3.023 2.117,-4.539 -0.231,0.078 -0.137,0.219 -0.239,0.387 -0.382,0.625 -0.722,1.277 -1.156,1.883 -0.203,0.281 -1.133,1.164 -0.777,1.515 z"
       style="fill:#543114;fill-opacity:1;fill-rule:nonzero;stroke:none"
       id="path213" /><path
       d="m 141.758,40.348 c -0.75,0.035 -1.539,0.664 -2.199,0.968 -0.454,0.215 -1.161,0.571 -1.676,1.028 0.75,-0.332 1.66,-0.535 2.234,-0.809 0.809,-0.387 1.059,-0.629 1.641,-1.187"
       style="fill:#543114;fill-opacity:1;fill-rule:nonzero;stroke:none"
       id="path215" /><path
       d="m 145.562,52.77 c -0.281,-0.149 -0.578,-0.254 -0.89,-0.305 -1.438,-0.414 -2.883,-0.711 -4.324,-1.078 -0.286,-0.778 -1.465,-1.52 -2.082,-1.871 -1.403,-0.801 -2.93,-1.051 -4.5,-1.098 -1.836,-0.059 -3.559,0.156 -5.301,0.574 0.398,-0.246 0.926,-0.324 1.355,-0.531 0.77,-0.367 1.629,-0.551 2.418,-0.879 1.684,-0.699 2.926,-1.703 3.965,-3.191 0.121,-0.172 0.5,-0.641 0.777,-1.125 l 0.262,0.078 c 0.051,-0.367 0.305,-0.703 0.641,-1 -0.246,0.109 -0.469,0.238 -0.66,0.386 0.078,-0.25 0.089,-0.472 -0.039,-0.613 -0.329,-0.367 -1.231,-0.101 -1.61,-0.027 -1.203,0.23 -2.383,0.394 -3.433,1.031 -1.305,0.789 -2.579,1.707 -3.719,2.707 -0.488,0.43 -1.141,0.77 -1.57,1.219 0.195,-0.539 0.312,-1.113 0.464,-1.664 0.227,-0.832 0.227,-1.653 0.391,-2.485 0.418,-2.054 1.508,-4.164 0.883,-6.355 -1.141,0.496 -1.649,2.422 -2.113,3.449 -0.907,2.012 -1.825,4.074 -2.176,6.285 -0.313,-1.535 -1.453,-3.015 -2.172,-4.394 -0.613,-1.176 -1.418,-2.531 -2.281,-3.559 -0.332,-0.394 -0.957,-1.136 -1.504,-1.14 -0.012,0.039 -0.016,0.086 -0.024,0.125 -0.105,-0.321 -0.289,-0.664 -0.5,-1.016 l 0.45,1.297 c -0.067,0.89 0.371,2.086 0.679,2.82 0.551,1.32 1.356,2.559 2.02,3.832 0.933,1.781 2.285,3.258 3.316,4.946 -0.316,0.257 -0.687,0.734 -0.965,1.097 -0.957,1.254 -1.75,2.629 -2.691,3.899 -1.211,1.628 -2.219,3.437 -3.66,4.878 -0.293,0.293 -0.582,0.883 -1,1.016 -0.262,-0.226 -0.559,-0.473 -0.805,-0.75 -0.863,-0.953 -1.668,-1.785 -2.711,-2.613 -1.437,-1.133 -2.785,-2.172 -4.34,-3.137 -0.711,-0.441 -1.515,-0.996 -2.078,-1.617 -0.195,-0.215 -0.586,-1.027 -1.004,-1.039 l -2.652,13.738 c 0.012,-0.058 0.027,-0.117 0.043,-0.176 0.988,-0.16 2.117,0.086 3.105,0.254 1.965,0.336 3.735,1.078 5.516,1.992 1.887,0.965 3.535,2.172 5.305,3.329 0.277,0.183 1.027,0.472 1.152,0.785 -0.062,-0.324 0.332,-0.871 0.453,-1.164 0.621,-1.492 1.25,-2.875 1.985,-4.325 1.624,-3.195 2.89,-6.625 4.925,-9.589 0.473,-0.688 1.348,-2.039 2.051,-2.621 0.274,-0.227 0.176,-0.247 0.539,-0.211 0.426,0.043 0.738,0.382 1.027,0.664 0.68,0.66 1.368,1.34 2.02,2.027 1.473,1.555 2.98,3.754 5.312,4.031 0.204,0.024 0.422,0.028 0.633,0.004 l 1.59,0.668 c 0.063,0.012 0.106,0.039 0.164,0.055 -0.23,-0.141 -0.457,-0.281 -0.699,-0.422 -0.156,-0.09 -0.395,-0.258 -0.652,-0.41 0.152,-0.067 0.289,-0.156 0.382,-0.309 0.36,-0.586 -0.289,-1.554 -0.593,-2.105 -0.758,-1.36 -1.938,-2.168 -3.121,-3.121 -0.618,-0.5 -1.188,-1.02 -1.887,-1.399 -1.117,-0.613 -2.07,-0.492 -3.195,-0.816 2.125,-0.184 4.425,0.922 6.515,1.238 0.899,0.141 5.887,0.723 5.457,-1.48 l 4.52,1.968 c 0.207,0.035 0.461,0.266 0.621,0.395 -0.016,-0.18 0.008,-0.547 -0.027,-0.707 0.113,-0.137 0.125,-0.285 0.042,-0.445"
       style="fill:#543114;fill-opacity:1;fill-rule:nonzero;stroke:none"
       id="path217" /><path
       d="m 138.199,60.383 c 0.508,0.305 0.996,0.617 1.465,0.949 -0.352,-0.445 -0.816,-0.789 -1.465,-0.949"
       style="fill:#543114;fill-opacity:1;fill-rule:nonzero;stroke:none"
       id="path219" /><path
       d="m 141.625,64.215 c 0.07,-0.063 0.273,-0.129 0.316,-0.192 0.317,-0.433 0.039,-0.648 -0.39,-1.085 -0.606,-0.618 -1.231,-1.133 -1.891,-1.606 0.758,0.969 0.992,2.414 1.414,3.531 0.278,-0.152 0.324,-0.445 0.551,-0.648"
       style="fill:#543114;fill-opacity:1;fill-rule:nonzero;stroke:none"
       id="path221" /><path
       d="m 117.816,36.285 c 0,0.004 0.004,0.008 0.004,0.008 l -0.004,-0.004 c 0,0 0,-0.004 0,-0.004"
       style="fill:#543114;fill-opacity:1;fill-rule:nonzero;stroke:none"
       id="path223" /><path
       d="m 117.965,33.789 c 0.281,-0.34 0.664,-0.769 1.058,-1.113 -0.675,0.285 -1.597,0.336 -2.058,0.828 -0.543,0.578 0.066,1.516 0.652,2.457 -0.066,-0.356 -0.254,-0.688 -0.23,-1.031 0.031,-0.379 0.367,-0.883 0.578,-1.141"
       style="fill:#543114;fill-opacity:1;fill-rule:nonzero;stroke:none"
       id="path225" /><path
       d="m 117.645,36.199 c 0.054,0.028 0.113,0.059 0.171,0.086 -0.066,-0.105 -0.132,-0.215 -0.199,-0.324 0.012,0.078 0.028,0.156 0.028,0.238"
       style="fill:#543114;fill-opacity:1;fill-rule:nonzero;stroke:none"
       id="path227" /><path
       d="m 119.023,32.676 c 0.247,-0.106 0.461,-0.238 0.606,-0.438 -0.199,0.106 -0.402,0.262 -0.606,0.438"
       style="fill:#543114;fill-opacity:1;fill-rule:nonzero;stroke:none"
       id="path229" /><path
       d="m 144.305,173.648 c 6.238,-0.945 12.511,-2.277 18.836,-2.511 2.332,-0.09 4.668,-0.094 7,0.058 0.035,0.004 2.711,0.02 2.902,0.504 -0.981,0.172 -1.762,0.715 -2.582,1.223 -0.918,0.566 -1.914,1.016 -2.805,1.617 0.114,0.047 0.211,0.016 0.356,0.004 0.597,-0.059 1.191,-0.156 1.797,-0.16 0.683,0 1.351,0.113 2.023,0.226 0.164,0.028 0.918,0.047 1.008,0.235 0.199,0.414 -1.07,0.898 -1.344,1.054 -1.16,0.649 -2.418,1.313 -3.457,2.125 0.227,0.094 0.578,-0.035 0.805,-0.078 0.867,-0.172 1.629,-0.578 2.426,-0.945 0.628,-0.285 1.265,-0.539 1.898,-0.812 0.301,-0.133 0.637,-0.266 0.852,-0.524 0,0.004 -0.028,0.02 -0.032,0.024 0.442,-0.227 -0.515,-0.911 -0.703,-1.051 -0.558,-0.418 -1.547,-1.008 -2.277,-1.059 0.836,-0.039 1.722,-0.613 2.367,-1.062 0.359,-0.25 0.961,-0.528 1.254,-0.844 0.105,-0.117 0.207,-0.199 0.148,-0.371 0,0.008 0,0.011 0.008,0.019 -0.14,-0.035 -0.297,-0.058 -0.437,-0.105 -1.004,-0.32 -1.969,-0.606 -3.039,-0.746 -1.696,-0.231 -3.434,-0.164 -5.141,-0.098 -1.789,0.07 -3.516,0.063 -5.301,-0.035"
       style="fill:#231f20;fill-opacity:1;fill-rule:nonzero;stroke:none"
       id="path231" /><path
       d="m 182.586,169.582 c -1.051,0.055 -2.094,0.582 -3.051,0.977 -0.953,0.394 -1.89,0.824 -2.812,1.289 -0.528,0.261 -1.973,0.882 -2.434,1.476 0.981,0.117 1.992,-0.031 2.969,-0.125 0.719,-0.07 1.754,-0.355 2.437,-0.14 -0.711,0.683 -1.535,1.226 -2.332,1.816 -0.371,0.273 -1.566,0.906 -1.551,1.391 0.415,0.136 0.833,0.105 1.258,-0.09 0.828,-0.192 1.66,-0.375 2.492,-0.551 1.29,-0.277 2.594,-0.469 3.883,-0.742 -0.242,-0.41 -1.808,-0.223 -2.09,-0.192 -0.777,0.086 -1.414,0.204 -2.152,0.434 -0.34,0.109 -0.879,0.109 -1.176,0.266 0.657,-0.371 1.235,-0.989 1.821,-1.446 0.336,-0.261 1.488,-0.871 0.879,-1.238 -0.348,-0.211 -1.008,-0.168 -1.418,-0.23 -0.34,-0.051 -0.762,-0.067 -1.114,-0.036 -0.14,0.012 -0.359,0.075 -0.453,0.055 0.676,-0.098 1.27,-0.668 1.813,-1.019 0.898,-0.575 1.89,-1.309 2.929,-1.602 -0.015,0.109 -0.086,0.164 0.102,-0.293"
       style="fill:#231f20;fill-opacity:1;fill-rule:nonzero;stroke:none"
       id="path233" /><path
       d="m 191.512,167.152 c 0.867,-0.359 1.742,-0.601 2.644,-0.859 1.168,-0.332 2.383,-0.809 3.614,-0.824 0.023,0.297 -0.258,0.508 -0.438,0.715 -0.652,0.738 -1.336,1.461 -2.02,2.171 -0.601,0.629 -1.25,1.2 -1.882,1.793 -0.188,0.176 -0.735,0.594 -0.668,0.918 0.832,0.059 1.746,-0.328 2.531,-0.519 1.195,-0.289 2.398,-0.613 3.621,-0.785 0.27,-0.039 0.563,-0.102 0.832,-0.039 -0.375,-0.489 -1.148,-0.344 -1.687,-0.293 -1.11,0.109 -2.227,0.359 -3.262,0.765 0.258,-0.183 0.418,-0.437 0.633,-0.699 0.711,-0.871 1.414,-1.746 2.082,-2.652 0.644,-0.875 1.386,-1.68 2.035,-2.547 0.226,-0.305 0.535,-0.641 0.578,-1.027 -0.215,0.273 -0.406,0.492 -0.801,0.414"
       style="fill:#231f20;fill-opacity:1;fill-rule:nonzero;stroke:none"
       id="path235" /><path
       d="m 205.359,163.215 c -0.656,0.316 -1.257,0.781 -1.867,1.176 -1.215,0.777 -2.597,1.504 -3.414,2.695 0.254,0.883 4.25,-0.887 4.981,-0.609 -0.856,0.636 -1.707,1.277 -2.536,1.949 -0.519,0.41 -1.023,0.84 -1.507,1.289 -0.379,0.172 -0.594,0.43 -0.637,0.773 0.512,-0.023 1.008,-0.133 1.484,-0.328 1.153,-0.414 2.317,-0.785 3.496,-1.113 2.5,-0.77 4.934,-1.723 7.461,-2.422 3.047,-0.84 6.25,-1.465 9.391,-1.906 1.375,-0.188 2.754,-0.344 4.133,-0.473 0.34,0 0.672,-0.047 0.992,-0.137 -0.426,0.032 -0.797,-0.082 -1.223,-0.117 -1.195,-0.097 -2.414,0.082 -3.601,0.192 -0.957,0.089 -1.914,0.187 -2.864,0.332 -3.652,0.543 -7.312,1.3 -10.789,2.511 -0.648,0.223 -1.324,0.422 -1.945,0.707 -0.379,0.176 -0.73,0.411 -1.113,0.567 -0.207,0.086 -0.43,0.105 -0.629,0.215 -0.293,0.152 -0.539,0.367 -0.836,0.511 -0.25,0.125 -0.633,0.176 -0.809,0.403 0.496,-0.434 0.926,-0.989 1.368,-1.473 0.457,-0.5 0.921,-0.984 1.429,-1.434 0.098,-0.089 0.77,-0.554 0.758,-0.73 -0.539,-0.496 -1.844,-0.051 -2.441,0.102 -0.34,0.085 -0.68,0.117 -1.02,0.187 -0.16,0.035 -0.437,0.145 -0.594,0.125 0.137,-0.234 0.516,-0.523 0.739,-0.758 0.601,-0.625 1.285,-1.172 1.593,-2.234"
       style="fill:#231f20;fill-opacity:1;fill-rule:nonzero;stroke:none"
       id="path237" /><path
       d="m 206.184,162.5 c -0.219,-0.883 -0.403,-1.754 -0.911,-2.535 0.825,-0.352 1.747,-0.461 2.489,-1.016 -0.774,1.11 -1.543,2.418 -2.098,3.633 0.125,0.035 0.195,-0.043 0.207,-0.234"
       style="fill:#231f20;fill-opacity:1;fill-rule:nonzero;stroke:none"
       id="path239" /><path
       d="m 188.344,179.07 c 0,0.262 -0.004,0.52 0.011,0.782 0.063,-0.215 -0.167,-0.829 -0.214,-1.016 -0.332,-1.285 -0.664,-2.563 -1.028,-3.84 -0.301,-1.058 -0.582,-2.125 -0.886,-3.184 -0.082,-0.281 -0.512,-1.171 -0.434,-1.574 0.375,0 0.676,-0.183 1.012,-0.308 0.941,-0.348 1.929,-0.45 2.929,-0.539 0.477,-0.043 3.207,-0.422 2.059,0.632 -0.352,0.325 -0.734,0.477 -1.078,0.844 -0.52,0.547 -0.985,1.129 -1.535,1.653 -0.188,0.179 -1.032,1.066 -1.27,1.101 -0.012,0.059 0.168,-0.086 0.125,-0.059 -0.195,0.098 -0.094,0.008 -0.015,0.168 0.988,-0.054 2.101,-0.015 3.113,0.2 1.312,0.269 2.734,0.371 3.988,0.797 -0.062,-0.497 -0.785,-0.582 -1.156,-0.797 -0.59,-0.34 -1.125,-0.442 -1.774,-0.618 -0.82,-0.218 -1.629,-0.472 -2.488,-0.394 0.539,-0.652 1.235,-1.129 1.805,-1.816 0.398,-0.477 0.801,-0.942 1.215,-1.407 0.062,-0.07 0.269,-0.254 0.293,-0.336 0.136,-0.445 -0.25,-0.519 -0.598,-0.574 -0.504,-0.082 -1.098,-0.183 -1.602,-0.207 -1.41,-0.066 -2.839,-0.019 -4.211,0.195 -0.597,0.094 -1.109,0.071 -1.703,0.227 -0.172,0.047 -0.613,0.23 -0.738,0.188 -0.105,0.117 -0.141,0.265 -0.102,0.425"
       style="fill:#231f20;fill-opacity:1;fill-rule:nonzero;stroke:none"
       id="path241" /><path
       d="m 185.809,173.176 4.289,11.008 -3.657,-11.481"
       style="fill:#231f20;fill-opacity:1;fill-rule:nonzero;stroke:none"
       id="path243" /></g></svg>
